<?xml version="1.0" standalone="no"?>
<!DOCTYPE svg PUBLIC "-//W3C//DTD SVG 20010904//EN"
 "http://www.w3.org/TR/2001/REC-SVG-20010904/DTD/svg10.dtd">
<svg version="1.0" xmlns="http://www.w3.org/2000/svg"
 width="145.000000pt" height="144.000000pt" viewBox="0 0 145.000000 144.000000"
 preserveAspectRatio="xMidYMid meet">
<metadata>
Created by potrace 1.10, written by Peter Selinger 2001-2011
</metadata>
<g transform="translate(0.000000,144.000000) scale(0.100000,-0.100000)"
fill="#000000" stroke="none">
<path d="M574 1376 c-263 -60 -464 -266 -518 -530 -20 -99 -20 -166 0 -263 75
-367 435 -604 799 -528 39 8 112 35 164 61 158 78 277 214 339 386 23 65 26
87 26 213 1 127 -2 147 -26 213 -74 203 -230 360 -425 427 -97 33 -264 43
-359 21z m321 -48 c340 -98 532 -456 431 -803 -10 -33 -25 -73 -33 -90 -21
-42 -125 -185 -134 -185 -4 0 0 21 8 47 19 62 12 205 -15 288 -16 54 -17 65
-5 102 8 23 32 62 54 87 23 25 37 46 33 46 -19 0 -76 -55 -100 -96 l-27 -45
-17 28 c-52 86 -90 246 -90 381 0 48 -4 93 -9 100 -12 20 -21 -114 -14 -214 7
-96 5 -97 -71 -43 -22 16 -42 27 -45 24 -10 -10 44 -55 86 -71 32 -12 45 -24
50 -43 3 -14 26 -68 50 -120 46 -100 73 -180 73 -216 0 -20 -3 -22 -39 -15
-51 9 -118 44 -158 83 -44 42 -51 29 -11 -21 35 -43 121 -95 177 -107 33 -7
33 -8 27 -51 -8 -61 -62 -197 -90 -226 -12 -14 -49 -35 -82 -47 -182 -69 -394
-49 -561 51 -121 72 -232 215 -276 353 -31 100 -31 280 0 380 63 198 240 372
433 426 109 30 245 29 355 -3z m240 -1065 c-3 -29 -17 -53 -26 -47 -5 3 -2 18
6 35 18 33 22 36 20 12z"/>
</g>
</svg>
