<?xml version="1.0" standalone="no"?>
<!DOCTYPE svg PUBLIC "-//W3C//DTD SVG 20010904//EN" "http://www.w3.org/TR/2001/REC-SVG-20010904/DTD/svg10.dtd">
<svg version="1.0" xmlns="http://www.w3.org/2000/svg"
  width="300.000000pt" height="46.000000pt" viewBox="0 0 300.000000 46.000000"
  preserveAspectRatio="xMidYMid meet">
  <metadata> Created by potrace 1.10, written by Peter Selinger 2001-2011 </metadata>
  <g transform="translate(0.000000,46.000000) scale(0.100000,-0.100000)"
    fill="#000000" stroke="none">
    <path
      d="M150 252 c0 -110 -12 -133 -61 -115 -41 16 -60 2 -28 -21 35 -24 74
-20 98 10 18 23 21 41 21 120 0 77 -3 94 -15 94 -12 0 -15 -16 -15 -88z" />
    <path
      d="M262 232 c-24 -59 -46 -113 -49 -120 -3 -7 2 -12 11 -12 9 0 21 11
26 25 8 22 15 25 60 25 44 0 52 -3 62 -25 10 -23 38 -35 38 -17 0 5 -20 53
-45 108 -25 54 -45 105 -45 112 0 32 -19 2 -58 -96z m84 -49 c-2 -2 -20 -3
-39 -1 l-34 3 19 45 19 45 20 -44 c11 -24 17 -46 15 -48z" />
    <path
      d="M449 335 c0 -3 0 -56 -1 -117 0 -99 2 -113 17 -116 13 -3 16 3 13 30
-3 29 0 33 23 36 21 2 31 -4 49 -32 13 -22 30 -36 41 -36 22 0 19 11 -14 47
l-20 23 26 21 c20 15 27 30 27 54 0 47 -8 64 -41 80 -26 14 -118 21 -120 10z
m122 -47 c13 -19 11 -62 -3 -76 -7 -7 -30 -12 -53 -12 l-40 0 2 53 c1 28 2 54
3 56 1 10 84 -9 91 -21z" />
    <path
      d="M660 220 l0 -120 38 0 c100 0 152 40 152 119 0 79 -50 121 -145 121
l-45 0 0 -120z m143 59 c9 -12 17 -38 17 -59 0 -52 -25 -77 -82 -86 l-48 -6 0
92 0 93 48 -7 c30 -4 53 -13 65 -27z" />
    <path
      d="M900 220 c0 -100 3 -120 15 -120 13 0 15 20 15 120 0 100 -2 120 -15
120 -12 0 -15 -20 -15 -120z" />
    <path
      d="M980 220 c0 -100 3 -120 15 -120 12 0 15 16 15 80 0 44 2 80 4 80 5
0 104 -103 135 -140 l20 -25 1 123 c0 100 -3 122 -15 122 -11 0 -15 -18 -17
-82 l-3 -82 -70 81 c-38 45 -73 82 -77 82 -5 1 -8 -53 -8 -119z" />
    <path
      d="M1225 328 c-2 -7 -3 -60 -2 -118 l2 -105 59 -3 c70 -4 88 2 80 23 -5
13 -18 15 -58 13 l-51 -3 -2 43 -3 42 40 0 c29 0 40 4 40 15 0 11 -11 15 -41
15 -38 0 -40 1 -37 28 3 26 5 27 56 26 45 -2 52 1 52 17 0 17 -8 19 -65 19
-44 0 -67 -4 -70 -12z" />
    <path
      d="M1410 220 c0 -100 3 -120 15 -120 10 0 15 11 15 35 0 30 3 35 24 35
17 0 31 -11 46 -35 13 -21 30 -35 41 -35 22 0 19 11 -14 47 l-20 23 26 21 c27
21 36 65 21 104 -10 25 -58 45 -109 45 l-45 0 0 -120z m121 68 c13 -19 11 -62
-3 -76 -7 -7 -29 -12 -50 -12 l-38 0 0 56 0 57 41 -6 c23 -3 46 -11 50 -19z" />
    <path
      d="M1620 220 c0 -100 3 -120 15 -120 13 0 15 20 15 120 0 100 -2 120
-15 120 -12 0 -15 -20 -15 -120z" />
    <path
      d="M1771 319 c-5 -13 -27 -66 -50 -118 -23 -52 -41 -96 -41 -98 0 -2 7
-3 15 -3 9 0 20 11 25 25 9 22 15 25 64 25 49 0 54 -2 60 -25 6 -22 36 -37 36
-18 0 8 -90 225 -96 232 -2 2 -8 -7 -13 -20z m45 -136 c-2 -2 -19 -3 -38 -1
l-34 3 19 44 19 44 19 -43 c11 -24 17 -45 15 -47z" />
    <path
      d="M2010 332 c0 -5 20 -53 45 -108 25 -54 45 -105 45 -111 0 -7 5 -13
10 -13 6 0 10 5 10 10 0 6 20 58 45 116 25 59 44 109 41 112 -14 14 -34 -13
-60 -82 -16 -42 -32 -76 -36 -76 -4 0 -21 35 -37 78 -18 46 -37 78 -47 80 -9
2 -16 -1 -16 -6z" />
    <path
      d="M2250 220 c0 -100 3 -120 15 -120 13 0 15 20 15 120 0 100 -2 120
-15 120 -12 0 -15 -20 -15 -120z" />
    <path
      d="M2330 221 l0 -121 47 0 c68 0 129 32 143 76 16 49 5 95 -30 129 -26
25 -40 30 -95 33 l-65 4 0 -121z m143 60 c15 -14 22 -34 22 -61 0 -53 -26 -78
-85 -82 l-45 -3 -3 89 -3 89 47 -6 c28 -3 54 -13 67 -26z" />
    <path
      d="M2644 324 c-4 -10 -25 -59 -46 -109 -22 -50 -42 -96 -45 -103 -10
-24 28 -12 39 13 10 22 17 25 64 25 47 0 52 -2 58 -25 6 -22 36 -37 36 -18 0
8 -90 225 -96 232 -2 2 -7 -5 -10 -15z m45 -136 c1 -5 -15 -8 -34 -8 -40 0
-41 3 -19 56 l17 39 18 -40 c9 -22 18 -43 18 -47z" />
    <path
      d="M2790 220 l0 -121 63 3 c47 2 62 7 62 18 0 11 -11 15 -47 13 l-48 -1
0 104 c0 86 -3 104 -15 104 -13 0 -15 -20 -15 -120z" />
  </g>
</svg>